<svg width="44" height="51" viewBox="0 0 44 51" fill="none" xmlns="http://www.w3.org/2000/svg">
<path fill-rule="evenodd" clip-rule="evenodd" d="M29.4709 3.91928C29.6872 1.98662 28.317 0.24147 26.3844 0.0251282C24.4517 -0.205636 22.7066 1.17895 22.4902 3.1116C22.2306 5.31828 22.5912 7.95765 23.0527 10.6691C24.3363 11.0585 25.5767 11.621 26.7305 12.2845C27.9709 9.35666 29.1824 6.45768 29.4709 3.91928ZM43.0427 12.3999C42.2783 10.6114 40.2014 9.80377 38.413 10.5682C36.0621 11.5922 33.6246 13.597 31.1727 15.6594C32.0958 16.568 32.9612 17.5921 33.6967 18.7026C36.4803 18.3565 39.1485 17.9382 41.211 17.044C42.9994 16.2507 43.8215 14.1739 43.0427 12.3999ZM37.1149 2.96737C35.5573 1.81355 33.3506 2.13085 32.1968 3.68851C30.4372 6.05384 29.2545 9.58742 27.9709 13.0345C28.4036 13.3229 28.8074 13.6114 29.1968 13.9143C29.4853 14.145 29.7882 14.3902 30.091 14.6354C33.0333 12.4143 36.0909 10.2509 37.8505 7.88554C39.0043 6.32788 38.6726 4.12119 37.1149 2.96737Z" fill="#53B175"/>
<path d="M30.4228 31.2073C29.3411 32.3755 28.1872 33.4572 26.9613 34.5101C25.245 35.9956 23.4998 37.4379 21.7258 38.8225C19.822 37.6543 18.4519 37.0629 18.2211 37.3658C18.0192 37.6398 18.8124 38.6494 20.2403 39.9619C15.4519 43.5243 10.3895 46.6685 4.95215 49.2502C4.10121 49.654 3.207 49.9425 2.32721 50.2598C2.09644 50.3463 1.85125 50.3463 1.7503 50.3607C0.36571 50.5194 -0.0525508 50.1444 0.00514029 48.8752C0.178214 44.9233 1.40415 41.2167 2.67335 37.5245C3.0195 36.5149 3.38007 35.5053 3.75506 34.4957C5.67329 35.6639 7.04345 36.2697 7.27422 35.9668C7.5194 35.6351 6.36558 34.3082 4.43293 32.6496C5.81752 29.0727 7.36075 25.5536 9.17802 22.1786C12.8126 24.8757 16.0433 26.6497 16.4038 26.1593C16.7644 25.6689 14.0962 23.0584 10.4184 20.3325L10.2597 20.2171C10.8943 19.1354 11.5578 18.0537 12.2645 17.0009C13.1443 15.674 14.226 14.4624 15.2933 13.2798C16.7211 11.7077 18.5672 11.1741 20.6297 11.6356C27.2353 13.1067 31.8218 16.8999 33.9852 23.4046C34.4179 24.7315 34.0285 26.0295 33.3506 27.2266C32.8891 28.0343 32.3843 28.7987 31.8218 29.5198C28.3315 26.967 25.3027 25.3228 24.9565 25.7843C24.6248 26.2458 27.0334 28.6256 30.4228 31.2073Z" fill="#F3603F"/>
</svg>
