<svg width="261" height="58" viewBox="0 0 261 58" fill="none" xmlns="http://www.w3.org/2000/svg">
<path fill-rule="evenodd" clip-rule="evenodd" d="M33.6946 4.48099C33.9419 2.27135 32.3754 0.276077 30.1658 0.0287295C27.9561 -0.235108 25.9609 1.34792 25.7135 3.55755C25.4167 6.0805 25.8289 9.09814 26.3566 12.1982C27.8242 12.6435 29.2423 13.2866 30.5615 14.0451C31.9797 10.6977 33.3648 7.3832 33.6946 4.48099ZM49.2115 14.177C48.3376 12.1323 45.963 11.2088 43.9183 12.0828C41.2305 13.2536 38.4437 15.5457 35.6404 17.9037C36.6957 18.9426 37.6851 20.1134 38.5261 21.3831C41.7087 20.9873 44.7593 20.5091 47.1173 19.4867C49.1621 18.5798 50.102 16.2053 49.2115 14.177ZM42.4342 3.39266C40.6533 2.07347 38.1304 2.43625 36.8112 4.21715C34.7994 6.92148 33.4472 10.9615 31.9797 14.9026C32.4743 15.2324 32.9361 15.5622 33.3813 15.9084C33.7111 16.1723 34.0574 16.4526 34.4037 16.7329C37.7676 14.1935 41.2634 11.72 43.2752 9.01569C44.5944 7.23479 44.2151 4.71184 42.4342 3.39266Z" fill="white"/>
<path d="M34.7829 35.6798C33.5462 37.0154 32.227 38.2522 30.8254 39.4559C28.8631 41.1544 26.8678 42.8034 24.8396 44.3864C22.6629 43.0507 21.0964 42.3746 20.8325 42.7209C20.6017 43.0342 21.5086 44.1885 23.1411 45.6891C17.6665 49.7621 11.8786 53.3569 5.66189 56.3085C4.68899 56.7703 3.66662 57.1001 2.66074 57.4628C2.3969 57.5618 2.11658 57.5618 2.00115 57.5783C0.418123 57.7596 -0.0600824 57.3309 0.005877 55.8798C0.203755 51.3616 1.60539 47.1237 3.0565 42.9023C3.45225 41.748 3.8645 40.5937 4.29323 39.4394C6.48638 40.7751 8.05292 41.4677 8.31676 41.1214C8.59708 40.7421 7.2779 39.2251 5.06826 37.3287C6.65128 33.2393 8.41569 29.2157 10.4934 25.3571C14.6489 28.4407 18.3426 30.469 18.7548 29.9083C19.1671 29.3477 16.1164 26.363 11.9115 23.2464L11.7302 23.1145C12.4557 21.8778 13.2142 20.641 14.0222 19.4373C15.0281 17.9202 16.2649 16.5351 17.4851 15.1829C19.1176 13.3855 21.2283 12.7754 23.5863 13.303C31.1387 14.985 36.3825 19.3218 38.8559 26.7588C39.3506 28.2758 38.9054 29.7599 38.1304 31.1286C37.6027 32.052 37.0256 32.926 36.3825 33.7504C32.3919 30.8317 28.9291 28.9519 28.5333 29.4796C28.154 30.0072 30.9078 32.7281 34.7829 35.6798Z" fill="white"/>
<path d="M80.2826 40.5507C78.0604 40.5507 76.1401 40.0918 74.5218 39.1739C72.9034 38.2561 71.6595 36.9396 70.7899 35.2247C69.9203 33.5097 69.4855 31.4807 69.4855 29.1377C69.4855 26.529 70.0049 24.2706 71.0435 22.3623C72.0822 20.4541 73.5677 18.9928 75.5 17.9783C77.4324 16.9396 79.715 16.4203 82.3479 16.4203C83.2899 16.4203 84.2923 16.4928 85.3551 16.6377C86.4179 16.7585 87.3237 16.8913 88.0725 17.0363C88.8213 17.1812 89.3044 17.2778 89.5218 17.3261L89.7754 17.7971C89.7271 17.9421 89.6425 18.3164 89.5218 18.9203C89.401 19.5 89.2681 20.285 89.1232 21.2754C89.0024 22.2416 88.9058 23.2802 88.8334 24.3913L85.3551 24.645C85.3793 24.5483 85.4034 24.3189 85.4276 23.9565C85.4517 23.5942 85.4638 23.1594 85.4638 22.6522C85.4638 21.6377 85.1498 20.9251 84.5218 20.5145C83.9179 20.0797 82.9034 19.8623 81.4783 19.8623C79.2802 19.8623 77.6377 20.5266 76.5508 21.8551C75.4638 23.1594 74.9203 25.1764 74.9203 27.9058C74.9203 30.8768 75.4638 33.1836 76.5508 34.8261C77.6619 36.4445 79.1957 37.2536 81.1522 37.2536C81.8044 37.2536 82.3962 37.1812 82.9276 37.0363C83.459 36.8913 83.8696 36.7464 84.1595 36.6015C84.4735 36.4324 84.6667 36.3237 84.7392 36.2754V32.8334C84.7392 32.1329 84.6305 31.6739 84.4131 31.4565C84.1957 31.215 83.7609 31.0942 83.1087 31.0942H81.2247L81.0435 30.8044L81.4058 28.2319C81.9855 28.2319 82.4807 28.244 82.8913 28.2681C84.244 28.3164 85.4276 28.3406 86.4421 28.3406C87.1909 28.3406 87.9276 28.3164 88.6522 28.2681C89.3768 28.2198 89.8479 28.1836 90.0652 28.1594L90.3189 29.5363C89.9082 29.802 89.5942 30.1401 89.3768 30.5507C89.1836 30.9372 89.0508 31.5049 88.9783 32.2536C88.9058 32.9783 88.8696 34.0532 88.8696 35.4783C88.8696 36.9276 88.9541 37.9783 89.1232 38.6305L88.7971 39.0652C88.7971 39.0894 88.3865 39.2343 87.5652 39.5C86.7681 39.7657 85.7295 40.0073 84.4493 40.2247C83.1933 40.4421 81.8044 40.5507 80.2826 40.5507ZM107.866 40.5507C106.465 40.5507 105.366 39.6812 104.569 37.9421L102.141 33.1957H100.112L100.076 35.9855C100.076 36.6377 100.124 37.1087 100.221 37.3986C100.318 37.6643 100.499 37.8454 100.764 37.9421C101.054 38.0387 101.537 38.0991 102.214 38.1232L102.359 38.3044L102.033 40.2247C101.646 40.2005 100.958 40.1764 99.9673 40.1522C99.0011 40.1522 98.1557 40.1522 97.4311 40.1522C96.6581 40.1522 95.861 40.1764 95.0398 40.2247C94.2185 40.273 93.6871 40.3092 93.4456 40.3334L93.6992 38.2319C94.5204 38.1353 95.0639 37.93 95.3296 37.616C95.6195 37.2778 95.7644 36.7102 95.7644 35.9131L95.8006 25.2971C95.8006 24.7899 95.7282 24.4517 95.5833 24.2826C95.4625 24.0894 95.233 23.9928 94.8948 23.9928L93.8441 24.029L93.6267 23.7754L93.9166 21.9276L97.7572 21.9638C98.6026 21.9638 99.5084 21.9517 100.475 21.9276C101.441 21.8793 102.117 21.843 102.504 21.8189C104.895 21.8189 106.719 22.2416 107.975 23.087C109.231 23.9324 109.859 25.1643 109.859 26.7826C109.859 27.8937 109.52 28.9082 108.844 29.8261C108.168 30.744 107.19 31.5169 105.909 32.145L108.337 35.8768C108.917 36.7222 109.46 37.3382 109.967 37.7247C110.475 38.1111 111.018 38.3044 111.598 38.3044L111.851 38.6305L111.598 40.2609L107.866 40.5507ZM102.793 30.6594C104.412 30.0797 105.221 28.9686 105.221 27.3261C105.221 26.3599 104.871 25.6474 104.17 25.1884C103.47 24.7053 102.395 24.4638 100.946 24.4638C100.752 24.4638 100.619 24.5121 100.547 24.6087C100.499 24.6812 100.462 24.8503 100.438 25.116C100.293 27.0966 100.221 28.8479 100.221 30.3696L102.793 30.6594ZM113.725 38.3044C114.546 38.2078 115.102 37.9904 115.392 37.6522C115.681 37.2899 115.826 36.686 115.826 35.8406L115.863 25.5145C115.863 24.9107 115.802 24.5121 115.681 24.3189C115.561 24.1015 115.307 23.9928 114.921 23.9928L114.051 24.029L113.834 23.7392L114.087 21.8913C114.474 21.8913 115.21 21.9034 116.297 21.9276C117.409 21.9517 118.592 21.9638 119.848 21.9638C124.124 21.9638 127.167 21.8551 128.979 21.6377L129.232 21.9638C129.16 22.2778 129.039 22.9662 128.87 24.029C128.725 25.0677 128.616 26.1425 128.544 27.2536L125.537 27.4348C125.537 27.3623 125.549 27.2174 125.573 27C125.597 26.7585 125.609 26.529 125.609 26.3116C125.609 25.7802 125.524 25.4058 125.355 25.1884C125.186 24.971 124.86 24.8261 124.377 24.7536C123.894 24.657 123.097 24.6087 121.986 24.6087C121.334 24.6087 120.923 24.657 120.754 24.7536C120.609 24.8503 120.524 25.0918 120.5 25.4783L120.319 29.5725H123C123.435 29.5725 124.051 29.5483 124.848 29.5C125.645 29.4276 126.177 29.3793 126.442 29.3551L126.732 29.6812L126.297 32.2899C126.032 32.2899 125.524 32.2778 124.776 32.2536C124.051 32.2295 123.278 32.2174 122.457 32.2174C121.805 32.2174 121.056 32.2778 120.21 32.3986C120.162 33.558 120.138 34.7416 120.138 35.9493C120.138 36.4807 120.174 36.8551 120.247 37.0725C120.319 37.2899 120.476 37.4469 120.718 37.5435C120.959 37.616 121.37 37.6522 121.95 37.6522C123.157 37.6522 124.039 37.5797 124.595 37.4348C125.15 37.2657 125.549 36.9759 125.79 36.5652C126.032 36.1305 126.225 35.43 126.37 34.4638L129.124 34.2464L129.413 34.5725C129.341 34.8623 129.208 35.5387 129.015 36.6015C128.846 37.6643 128.701 38.7875 128.58 39.971L128.254 40.2971C127.65 40.273 126.334 40.2367 124.305 40.1884C122.3 40.1401 120.488 40.116 118.87 40.116C117.735 40.116 116.636 40.1522 115.573 40.2247C114.51 40.3213 113.822 40.3817 113.508 40.4058L113.725 38.3044ZM132.265 38.3044C133.087 38.2078 133.642 37.9904 133.932 37.6522C134.222 37.2899 134.367 36.686 134.367 35.8406L134.403 25.5145C134.403 24.9107 134.343 24.5121 134.222 24.3189C134.101 24.1015 133.848 23.9928 133.461 23.9928L132.592 24.029L132.374 23.7392L132.628 21.8913C133.014 21.8913 133.751 21.9034 134.838 21.9276C135.949 21.9517 137.133 21.9638 138.389 21.9638C142.664 21.9638 145.708 21.8551 147.519 21.6377L147.773 21.9638C147.7 22.2778 147.579 22.9662 147.41 24.029C147.265 25.0677 147.157 26.1425 147.084 27.2536L144.077 27.4348C144.077 27.3623 144.089 27.2174 144.113 27C144.137 26.7585 144.15 26.529 144.15 26.3116C144.15 25.7802 144.065 25.4058 143.896 25.1884C143.727 24.971 143.401 24.8261 142.918 24.7536C142.435 24.657 141.637 24.6087 140.526 24.6087C139.874 24.6087 139.464 24.657 139.294 24.7536C139.15 24.8503 139.065 25.0918 139.041 25.4783L138.86 29.5725H141.541C141.976 29.5725 142.592 29.5483 143.389 29.5C144.186 29.4276 144.717 29.3793 144.983 29.3551L145.273 29.6812L144.838 32.2899C144.572 32.2899 144.065 32.2778 143.316 32.2536C142.592 32.2295 141.819 32.2174 140.997 32.2174C140.345 32.2174 139.596 32.2778 138.751 32.3986C138.703 33.558 138.679 34.7416 138.679 35.9493C138.679 36.4807 138.715 36.8551 138.787 37.0725C138.86 37.2899 139.017 37.4469 139.258 37.5435C139.5 37.616 139.91 37.6522 140.49 37.6522C141.698 37.6522 142.579 37.5797 143.135 37.4348C143.691 37.2657 144.089 36.9759 144.331 36.5652C144.572 36.1305 144.765 35.43 144.91 34.4638L147.664 34.2464L147.954 34.5725C147.881 34.8623 147.749 35.5387 147.555 36.6015C147.386 37.6643 147.241 38.7875 147.121 39.971L146.794 40.2971C146.191 40.273 144.874 40.2367 142.845 40.1884C140.84 40.1401 139.029 40.116 137.41 40.116C136.275 40.116 135.176 40.1522 134.113 40.2247C133.051 40.3213 132.362 40.3817 132.048 40.4058L132.265 38.3044ZM165.226 25.1884C165.202 24.7295 165.118 24.4155 164.973 24.2464C164.828 24.0773 164.586 23.9928 164.248 23.9928H163.234L163.125 23.7392L163.306 21.8551C163.596 21.8793 164.139 21.9034 164.936 21.9276C165.734 21.9517 166.543 21.9638 167.364 21.9638C168.161 21.9638 168.91 21.9517 169.61 21.9276C170.311 21.8793 170.782 21.843 171.023 21.8189L170.878 23.8841C170.226 23.9807 169.755 24.1619 169.465 24.4276C169.2 24.6933 169.055 25.1039 169.031 25.6594L168.596 40.4058L165.009 40.7681C163.173 38.0628 161.446 35.5991 159.828 33.3768C158.234 31.1305 157.219 29.7053 156.784 29.1015H156.458V36.8189C156.458 37.3261 156.531 37.6764 156.676 37.8696C156.845 38.0628 157.122 38.1594 157.509 38.1594C157.726 38.1594 157.956 38.1474 158.197 38.1232C158.463 38.0991 158.644 38.087 158.741 38.087L158.922 38.2681L158.596 40.2247C158.306 40.2247 157.763 40.2005 156.965 40.1522C156.168 40.128 155.383 40.116 154.61 40.116C153.91 40.116 153.149 40.1401 152.328 40.1884C151.531 40.2609 151.011 40.3092 150.77 40.3334L151.023 38.2681C151.627 38.1957 152.062 38.0266 152.328 37.7609C152.593 37.4952 152.738 37.0725 152.763 36.4928L153.161 25.6957C153.161 25.0918 153.004 24.6812 152.69 24.4638C152.376 24.2222 151.736 24.0411 150.77 23.9203L150.516 23.6305L150.734 21.8189C150.951 21.843 151.446 21.8793 152.219 21.9276C152.992 21.9517 153.705 21.9638 154.357 21.9638C155.057 21.9638 155.697 21.9517 156.277 21.9276C156.857 21.9034 157.243 21.8793 157.436 21.8551C158.934 24.1981 160.444 26.4565 161.965 28.6305C163.511 30.7802 164.514 32.157 164.973 32.7609H165.299L165.226 25.1884ZM185.23 40.6957C183.418 34.9469 181.534 29.2947 179.578 23.7392H179.288C179.288 24.0049 179.239 24.8865 179.143 26.3841C179.046 27.8817 178.962 29.1256 178.889 30.116C178.599 34.1739 178.454 36.3599 178.454 36.6739C178.454 37.4469 178.841 37.8334 179.614 37.8334L180.846 37.7971L181.063 37.9783L180.664 40.2609C178.636 40.1643 177.222 40.116 176.425 40.116C175.87 40.116 175.193 40.1522 174.396 40.2247C173.623 40.2971 173.104 40.3575 172.838 40.4058L173.056 38.0507C173.756 37.9783 174.264 37.7609 174.578 37.3986C174.892 37.0121 175.121 36.3599 175.266 35.4421C175.483 33.558 175.773 30.744 176.136 27C176.522 23.2561 176.715 21.2029 176.715 20.8406C176.715 20.1884 176.522 19.7416 176.136 19.5C175.773 19.2585 175.049 19.0894 173.962 18.9928L173.78 18.7754L174.107 16.6739C176.087 16.7947 177.597 16.8551 178.636 16.8551C179.167 16.8551 180.447 16.8068 182.476 16.7102C183.442 20.116 184.783 24.5483 186.498 30.0073L187.114 31.8913H187.404C187.549 31.4082 187.742 30.8044 187.983 30.0797C188.225 29.3309 188.479 28.5338 188.744 27.6884C189.976 24.0169 191.148 20.3937 192.259 16.8189C192.766 16.8189 193.177 16.8309 193.491 16.8551L195.411 16.8913L196.534 16.8551C197.041 16.8551 197.693 16.8309 198.491 16.7826C199.288 16.7343 199.867 16.686 200.23 16.6377L200.375 16.7826L200.157 18.9565C199.119 19.0532 198.406 19.2343 198.02 19.5C197.657 19.7657 197.476 20.2247 197.476 20.8768C197.476 21.6256 197.573 23.5338 197.766 26.6015C197.959 29.645 198.152 32.2778 198.346 34.5C198.491 35.8285 198.672 36.7222 198.889 37.1812C199.131 37.616 199.541 37.8334 200.121 37.8334C200.387 37.8334 200.604 37.8213 200.773 37.7971C200.966 37.773 201.087 37.7609 201.136 37.7609L201.28 37.9421L200.954 40.2247C200.592 40.2247 200.266 40.2126 199.976 40.1884C198.913 40.1401 198.02 40.116 197.295 40.116C196.594 40.116 195.664 40.1522 194.505 40.2247C193.37 40.2971 192.585 40.3575 192.15 40.4058L192.404 38.0507C193.128 37.9541 193.648 37.773 193.962 37.5073C194.276 37.2174 194.433 36.7947 194.433 36.2392C194.433 36.1425 194.336 34.645 194.143 31.7464C193.877 27.9541 193.72 25.285 193.672 23.7392H193.346C191.317 29.3913 189.433 34.9348 187.693 40.3696L185.23 40.6957ZM212.47 40.116L212.615 38.2319C213.315 38.1594 213.81 38.0991 214.1 38.0507C214.39 37.9783 214.583 37.8817 214.68 37.7609C214.8 37.6401 214.861 37.459 214.861 37.2174C214.861 36.9517 214.813 36.6739 214.716 36.3841L214.209 34.5C213.701 34.4759 212.82 34.4638 211.564 34.4638C211.008 34.4638 210.09 34.5242 208.81 34.645L208.158 36.529C208.061 36.8913 208.013 37.157 208.013 37.3261C208.013 37.6401 208.098 37.8575 208.267 37.9783C208.46 38.0749 208.81 38.1232 209.317 38.1232H210.441L210.622 38.3768L210.404 40.2609C210.115 40.2367 209.499 40.2005 208.557 40.1522C207.639 40.128 206.781 40.116 205.984 40.116C205.139 40.116 204.366 40.128 203.665 40.1522C202.989 40.1764 202.542 40.1884 202.325 40.1884L202.542 38.1594C202.977 38.087 203.327 37.9179 203.593 37.6522C203.883 37.3623 204.148 36.9396 204.39 36.3841L209.607 22.1087L214.933 21.6377L215.296 21.8551C215.586 22.9421 216.201 25.1643 217.143 28.5218C218.086 31.8793 218.858 34.4517 219.462 36.2392C219.656 36.8913 219.909 37.3623 220.223 37.6522C220.561 37.9421 221.044 38.1111 221.672 38.1594L221.817 38.3768L221.6 40.1884C221.334 40.1884 220.827 40.1764 220.078 40.1522C219.354 40.128 218.605 40.116 217.832 40.116C216.745 40.116 215.682 40.1401 214.643 40.1884C213.605 40.2609 212.941 40.3092 212.651 40.3334L212.47 40.116ZM211.564 31.9276C212.361 31.9276 213.061 31.8913 213.665 31.8189L212.035 25.9493H211.6L209.607 31.9276H211.564ZM237.685 40.5507C236.284 40.5507 235.185 39.6812 234.388 37.9421L231.96 33.1957H229.931L229.895 35.9855C229.895 36.6377 229.943 37.1087 230.04 37.3986C230.137 37.6643 230.318 37.8454 230.584 37.9421C230.873 38.0387 231.356 38.0991 232.033 38.1232L232.178 38.3044L231.852 40.2247C231.465 40.2005 230.777 40.1764 229.786 40.1522C228.82 40.1522 227.975 40.1522 227.25 40.1522C226.477 40.1522 225.68 40.1764 224.859 40.2247C224.038 40.273 223.506 40.3092 223.265 40.3334L223.518 38.2319C224.34 38.1353 224.883 37.93 225.149 37.616C225.439 37.2778 225.584 36.7102 225.584 35.9131L225.62 25.2971C225.62 24.7899 225.547 24.4517 225.402 24.2826C225.282 24.0894 225.052 23.9928 224.714 23.9928L223.663 24.029L223.446 23.7754L223.736 21.9276L227.576 21.9638C228.422 21.9638 229.327 21.9517 230.294 21.9276C231.26 21.8793 231.936 21.843 232.323 21.8189C234.714 21.8189 236.538 22.2416 237.794 23.087C239.05 23.9324 239.678 25.1643 239.678 26.7826C239.678 27.8937 239.34 28.9082 238.663 29.8261C237.987 30.744 237.009 31.5169 235.728 32.145L238.156 35.8768C238.736 36.7222 239.279 37.3382 239.786 37.7247C240.294 38.1111 240.837 38.3044 241.417 38.3044L241.67 38.6305L241.417 40.2609L237.685 40.5507ZM232.613 30.6594C234.231 30.0797 235.04 28.9686 235.04 27.3261C235.04 26.3599 234.69 25.6474 233.989 25.1884C233.289 24.7053 232.214 24.4638 230.765 24.4638C230.571 24.4638 230.439 24.5121 230.366 24.6087C230.318 24.6812 230.282 24.8503 230.257 25.116C230.113 27.0966 230.04 28.8479 230.04 30.3696L232.613 30.6594ZM245.718 38.2319C246.636 38.1594 247.3 38.0507 247.711 37.9058C248.121 37.7367 248.387 37.4831 248.508 37.145C248.653 36.7826 248.725 36.215 248.725 35.4421V24.5C247.759 24.5242 247.059 24.6208 246.624 24.7899C246.213 24.959 245.911 25.285 245.718 25.7681C245.525 26.2512 245.356 27.0725 245.211 28.2319L242.457 28.4131C242.481 28.0024 242.53 27.1329 242.602 25.8044C242.699 24.4517 242.759 23.1836 242.783 22L243.146 21.6377L246.225 21.9638H255.573L258.725 21.6377L259.088 22C259.112 23.2319 259.148 24.4879 259.196 25.7681C259.269 27.0483 259.317 27.8696 259.341 28.2319L256.588 28.4131C256.443 27.157 256.274 26.2754 256.08 25.7681C255.911 25.2609 255.633 24.9348 255.247 24.7899C254.861 24.6208 254.208 24.5242 253.29 24.5C253.097 27.2536 253.001 31.1305 253.001 36.1305C253.001 36.8309 253.121 37.3261 253.363 37.616C253.604 37.9058 254.027 38.0507 254.631 38.0507C255.018 38.0507 255.356 38.0387 255.646 38.0145C255.935 37.9904 256.117 37.9783 256.189 37.9783L256.298 38.1232L256.044 40.2609C255.633 40.2367 254.885 40.2005 253.798 40.1522C252.711 40.128 251.672 40.116 250.682 40.116C249.981 40.116 249.039 40.1401 247.856 40.1884C246.672 40.2609 245.887 40.3092 245.501 40.3334L245.718 38.2319Z" fill="white"/>
</svg>
