<svg width="22" height="22" viewBox="0 0 22 22" fill="none" xmlns="http://www.w3.org/2000/svg">
<path d="M7.27348 10.933C7.40104 10.8855 7.53822 10.8608 7.67691 10.8604C7.81559 10.8599 7.95297 10.8838 8.08093 10.9305C8.20888 10.9772 8.3248 11.0458 8.42185 11.1323C8.5189 11.2188 8.5951 11.3214 8.64595 11.434C8.6968 11.5467 8.72126 11.6671 8.7179 11.7881C8.71453 11.9092 8.6834 12.0284 8.62635 12.1388C8.5693 12.2491 8.48749 12.3484 8.38574 12.4307C8.284 12.5129 8.1644 12.5766 8.034 12.6178C7.34045 12.8564 6.74519 13.2717 6.32569 13.8096C5.90619 14.3476 5.68186 14.9833 5.68189 15.6341V17.2102C5.68189 17.4504 5.79121 17.6808 5.98578 17.8507C6.18036 18.0206 6.44426 18.116 6.71944 18.116H15.0198C15.2949 18.116 15.5588 18.0206 15.7534 17.8507C15.948 17.6808 16.0573 17.4504 16.0573 17.2102V15.7183C16.0574 15.0467 15.8237 14.3908 15.3872 13.8378C14.9506 13.2847 14.3318 12.8605 13.6129 12.6214C13.4817 12.5817 13.3609 12.5193 13.2578 12.4381C13.1547 12.3569 13.0714 12.2584 13.0127 12.1485C12.954 12.0386 12.9212 11.9195 12.9161 11.7984C12.9111 11.6772 12.934 11.5564 12.9835 11.4431C13.033 11.3298 13.108 11.2263 13.2041 11.1388C13.3002 11.0513 13.4155 10.9815 13.5431 10.9336C13.6707 10.8857 13.808 10.8606 13.9468 10.8599C14.0857 10.8592 14.2234 10.8828 14.3516 10.9294C15.4634 11.2991 16.4203 11.9551 17.0955 12.8103C17.7707 13.6655 18.1323 14.6797 18.1324 15.7183V17.2102C18.1324 17.9309 17.8045 18.6221 17.2207 19.1317C16.637 19.6413 15.8453 19.9276 15.0198 19.9276H6.71944C5.89392 19.9276 5.10221 19.6413 4.51848 19.1317C3.93475 18.6221 3.60681 17.9309 3.60681 17.2102L3.60681 15.6341C3.60695 14.6198 3.95675 13.6289 4.6107 12.7905C5.26464 11.9521 6.19247 11.3048 7.27348 10.933ZM10.8696 1.81165C11.9703 1.81165 13.0259 2.19337 13.8042 2.87285C14.5825 3.55233 15.0198 4.4739 15.0198 5.43483V7.24643C15.0198 8.20736 14.5825 9.12893 13.8042 9.80841C13.0259 10.4879 11.9703 10.8696 10.8696 10.8696C9.76891 10.8696 8.7133 10.4879 7.93499 9.80841C7.15668 9.12893 6.71944 8.20736 6.71944 7.24643V5.43483C6.71944 4.4739 7.15668 3.55233 7.93499 2.87285C8.7133 2.19337 9.76891 1.81165 10.8696 1.81165ZM10.8696 3.62324C10.3193 3.62324 9.79145 3.8141 9.4023 4.15384C9.01314 4.49358 8.79452 4.95437 8.79452 5.43483V7.24643C8.79452 7.72689 9.01314 8.18768 9.4023 8.52742C9.79145 8.86716 10.3193 9.05802 10.8696 9.05802C11.4199 9.05802 11.9478 8.86716 12.3369 8.52742C12.7261 8.18768 12.9447 7.72689 12.9447 7.24643V5.43483C12.9447 4.95437 12.7261 4.49358 12.3369 4.15384C11.9478 3.8141 11.4199 3.62324 10.8696 3.62324Z" fill="#181725"/>
</svg>
